RobotoExtremo-opsz18wght700wdthmin.ufo
<glyph name="ampersand" format="2">
  <advance width="1254"/>
  <unicode hex="0026"/>
  <outline>
    <contour>
      <point x="53.42461538461539" y="379.04615384615386" type="qcurve" smooth="yes"/>
      <point x="53.42461538461539" y="540.7130769230768"/>
      <point x="234.94200000000004" y="749.056153846154"/>
      <point x="370.94569230769247" y="848.5015384615384" type="qcurve" smooth="yes"/>
      <point x="520.5346153846151" y="952.7130769230771" type="line" smooth="yes"/>
      <point x="593.3153846153847" y="1005.296923076923"/>
      <point x="640.0865846153846" y="1101.4153846153847"/>
      <point x="640.0865846153846" y="1158.481538461538" type="qcurve" smooth="yes"/>
      <point x="640.0865846153846" y="1226.0900000000001"/>
      <point x="608.2073538461539" y="1287.9738461538457"/>
      <point x="568.7419692307694" y="1287.9738461538457" type="qcurve" smooth="yes"/>
      <point x="531.484276923077" y="1287.9738461538457"/>
      <point x="495.8281230769232" y="1220.1815384615384"/>
      <point x="495.8281230769232" y="1153.2799999999997" type="qcurve" smooth="yes"/>
      <point x="495.8281230769232" y="1084.533076923077"/>
      <point x="567.1251384615385" y="962.0492307692305"/>
      <point x="646.9178461538461" y="844.7584615384616" type="qcurve" smooth="yes"/>
      <point x="1237.7555692307687" y="0.0" type="line"/>
      <point x="866.8873538461539" y="0.0" type="line"/>
      <point x="361.9947692307691" y="722.1430769230769" type="line" smooth="yes"/>
      <point x="261.6711076923077" y="859.8069230769231"/>
      <point x="169.56344615384617" y="1042.4307692307689"/>
      <point x="169.56344615384617" y="1145.1784615384609" type="qcurve" smooth="yes"/>
      <point x="169.56344615384617" y="1307.303076923077"/>
      <point x="377.76624615384605" y="1485.7661538461539"/>
      <point x="572.7496615384619" y="1485.7661538461539" type="qcurve" smooth="yes"/>
      <point x="764.9784615384616" y="1485.7661538461539"/>
      <point x="957.7558769230768" y="1318.0138461538456"/>
      <point x="957.7558769230768" y="1159.0630769230766" type="qcurve" smooth="yes"/>
      <point x="957.7558769230768" y="1029.9992307692307"/>
      <point x="826.9157230769232" y="858.4123076923076"/>
      <point x="713.6138461538462" y="782.1630769230769" type="qcurve" smooth="yes"/>
      <point x="580.2633846153844" y="687.5692307692306" type="line" smooth="yes"/>
      <point x="458.0655693846799" y="600.5404874567068"/>
      <point x="381.9558153846154" y="484.4484615384616"/>
      <point x="381.9558153846154" y="402.026153846154" type="qcurve" smooth="yes"/>
      <point x="381.9558153846154" y="313.3776923076922"/>
      <point x="461.2094153846155" y="214.47538461538463"/>
      <point x="527.4670461538461" y="214.47538461538463" type="qcurve" smooth="yes"/>
      <point x="642.3285538461536" y="214.47538461538463"/>
      <point x="864.8650461538463" y="463.12615384615395"/>
      <point x="879.014276923077" y="707.0892307692305" type="qcurve"/>
      <point x="1195.317415384615" y="707.0892307692305" type="line"/>
      <point x="1195.4281846153842" y="411.83999999999986"/>
      <point x="791.2780307692307" y="-19.876923076923077"/>
      <point x="524.2424307692307" y="-19.876923076923077" type="qcurve" smooth="yes"/>
      <point x="288.7207384615386" y="-19.876923076923077"/>
      <point x="53.42461538461539" y="209.57076923076923"/>
    </contour>
  </outline>
</glyph>
<glyph name="zero" format="2">
  <advance width="1021"/>
  <unicode hex="0030"/>
  <outline>
    <contour>
      <point x="73.96615384615387" y="448.85230769230765" type="qcurve" smooth="yes"/>
      <point x="73.96615384615387" y="1007.0553846153846" type="line" smooth="yes"/>
      <point x="73.96615384615387" y="1223.8153846153846"/>
      <point x="300.08923076923077" y="1481.8769230769228"/>
      <point x="510.4523076923076" y="1481.8769230769228" type="qcurve" smooth="yes"/>
      <point x="720.7969230769231" y="1481.8769230769228"/>
      <point x="946.9200000000001" y="1226.8153846153846"/>
      <point x="946.9200000000001" y="1007.0553846153846" type="qcurve" smooth="yes"/>
      <point x="946.9200000000001" y="448.85230769230765" type="line" smooth="yes"/>
      <point x="946.9200000000001" y="227.44923076923072"/>
      <point x="710.7969230769232" y="-25.852307692307694"/>
      <point x="510.4523076923076" y="-25.876923076923077" type="qcurve" smooth="yes"/>
      <point x="310.08923076923077" y="-25.901538461538458"/>
      <point x="73.96615384615387" y="229.4492307692307"/>
    </contour>
    <contour>
      <point x="433.9907692307693" y="391.1723076923077" type="line" smooth="yes"/>
      <point x="433.9907692307693" y="321.73846153846154"/>
      <point x="462.123076923077" y="223.19076923076923"/>
      <point x="510.3784615384616" y="223.19076923076923" type="qcurve" smooth="yes"/>
      <point x="559.6215384615385" y="223.19076923076923"/>
      <point x="586.7846153846153" y="321.73846153846154"/>
      <point x="586.7846153846153" y="391.1723076923077" type="qcurve" smooth="yes"/>
      <point x="586.7846153846153" y="1059.7661538461539" type="line" smooth="yes"/>
      <point x="586.7846153846153" y="1132.1384615384618"/>
      <point x="557.6215384615385" y="1229.6861538461537"/>
      <point x="510.3784615384616" y="1229.6861538461537" type="qcurve" smooth="yes"/>
      <point x="464.1538461538462" y="1229.6861538461537"/>
      <point x="433.9907692307693" y="1132.1384615384616"/>
      <point x="433.9907692307693" y="1059.7661538461539" type="qcurve" smooth="yes"/>
    </contour>
  </outline>
</glyph>
<glyph name="one" format="2">
  <advance width="1021"/>
  <unicode hex="0031"/>
  <outline>
    <contour>
      <point x="450.77538461538455" y="0.0" type="line"/>
      <point x="450.77538461538455" y="1114.1046153846153" type="line"/>
      <point x="145.4830769230769" y="1008.163076923077" type="line"/>
      <point x="145.4830769230769" y="1305.5015384615383" type="line"/>
      <point x="578.6676923076922" y="1466.6246153846153" type="line"/>
      <point x="810.4061538461538" y="1466.6246153846153" type="line"/>
      <point x="810.4061538461538" y="0.0" type="line"/>
    </contour>
  </outline>
</glyph>
<glyph name="two" format="2">
  <advance width="1017"/>
  <unicode hex="0032"/>
  <outline>
    <contour>
      <point x="51" y="0" type="line"/>
      <point x="51" y="215" type="line"/>
      <point x="468" y="821" type="line" smooth="yes"/>
      <point x="512" y="892"/>
      <point x="563" y="1007"/>
      <point x="563" y="1079" type="qcurve" smooth="yes"/>
      <point x="563" y="1160"/>
      <point x="535" y="1229"/>
      <point x="485" y="1229" type="qcurve" smooth="yes"/>
      <point x="434" y="1229"/>
      <point x="406" y="1133"/>
      <point x="406" y="992" type="qcurve" smooth="yes"/>
      <point x="406" y="956" type="line"/>
      <point x="47" y="956" type="line"/>
      <point x="47" y="1025" type="line" smooth="yes"/>
      <point x="47" y="1235"/>
      <point x="278" y="1482"/>
      <point x="491" y="1482" type="qcurve" smooth="yes"/>
      <point x="714" y="1482"/>
      <point x="919" y="1276"/>
      <point x="919" y="1095" type="qcurve" smooth="yes"/>
      <point x="920" y="976"/>
      <point x="824" y="791"/>
      <point x="736" y="659" type="qcurve" smooth="yes"/>
      <point x="500" y="272" type="line"/>
      <point x="949" y="272" type="line"/>
      <point x="949" y="0" type="line"/>
    </contour>
  </outline>
</glyph>
<glyph name="five" format="2">
  <advance width="1021"/>
  <unicode hex="0035"/>
  <outline>
    <contour>
      <point x="55.61846153846154" y="402.1538461538461" type="qcurve" smooth="yes"/>
      <point x="55.61846153846154" y="452.10769230769233" type="line"/>
      <point x="407.48923076923074" y="450.1630769230769" type="line"/>
      <point x="407.48923076923074" y="408.13846153846146" type="line" smooth="yes"/>
      <point x="407.50769230769225" y="317.48040485829966"/>
      <point x="447.3692307692308" y="222.27692307692305"/>
      <point x="505.47692307692313" y="222.27692307692305" type="qcurve" smooth="yes"/>
      <point x="562.5969230769232" y="222.27692307692305"/>
      <point x="613.3600000000001" y="342.80615384615385"/>
      <point x="613.3600000000001" y="479.90769230769234" type="qcurve" smooth="yes"/>
      <point x="613.3600000000001" y="612.8707692307693"/>
      <point x="562.3446153846154" y="727.8923076923077"/>
      <point x="506.8553846153847" y="727.8923076923077" type="qcurve" smooth="yes"/>
      <point x="458.52" y="727.8923076923077"/>
      <point x="403.156923076923" y="667.126153846154"/>
      <point x="387.2676923076923" y="634.1107692307692" type="qcurve"/>
      <point x="87.26769230769231" y="696.7538461538462" type="line"/>
      <point x="159.25846153846152" y="1456.0" type="line"/>
      <point x="912.6246153846155" y="1456.0" type="line"/>
      <point x="912.7353846153846" y="1174.8707692307692" type="line"/>
      <point x="429.0799999999999" y="1179.593846153846" type="line"/>
      <point x="404.57846153846145" y="911.72" type="line"/>
      <point x="453.0626320277595" y="939.4762160304033"/>
      <point x="538.0" y="965.036923076923"/>
      <point x="592.4030769230768" y="965.036923076923" type="qcurve" smooth="yes"/>
      <point x="758.2523076923077" y="965.036923076923"/>
      <point x="970.6000000000001" y="721.5723076923077"/>
      <point x="970.6000000000001" y="489.99999999999994" type="qcurve" smooth="yes"/>
      <point x="970.6000000000001" y="250.7815384615385"/>
      <point x="720.7538461538462" y="-25.876923076923077"/>
      <point x="509.4215384615383" y="-25.876923076923077" type="qcurve" smooth="yes"/>
      <point x="297.596923076923" y="-25.876923076923077"/>
      <point x="60.61846153846154" y="207.6830769230769"/>
    </contour>
  </outline>
</glyph>
<glyph name="seven" format="2">
  <advance width="1021"/>
  <unicode hex="0037"/>
  <outline>
    <contour>
      <point x="154.51384615384615" y="0.0" type="line"/>
      <point x="578.4523076923077" y="1181.7415384615383" type="line"/>
      <point x="34.76615384615385" y="1181.7415384615383" type="line"/>
      <point x="34.766153846153856" y="1456.0" type="line"/>
      <point x="941.1353846153845" y="1456.0" type="line"/>
      <point x="941.1353846153845" y="1215.9784615384615" type="line"/>
      <point x="533.7876923076923" y="0.0" type="line"/>
    </contour>
  </outline>
</glyph>
<glyph name="eight" format="2">
  <advance width="1021"/>
  <unicode hex="0038"/>
  <outline>
    <contour>
      <point x="45.2123076923077" y="408.1415384615385" type="qcurve" smooth="yes"/>
      <point x="45.2123076923077" y="541.2061538461538"/>
      <point x="153.07999999999996" y="720.1907692307692"/>
      <point x="240.36615384615382" y="758.1292307692306" type="qcurve"/>
      <point x="240.36615384615382" y="762.0923076923076" type="line"/>
      <point x="160.10461538461536" y="809.8707692307693"/>
      <point x="80.9353846153846" y="967.8369230769231"/>
      <point x="80.9353846153846" y="1081.9384615384618" type="qcurve" smooth="yes"/>
      <point x="80.9353846153846" y="1262.7015384615383"/>
      <point x="306.2923076923077" y="1481.864615384615"/>
      <point x="510.5692307692306" y="1481.864615384615" type="qcurve" smooth="yes"/>
      <point x="714.796923076923" y="1481.864615384615"/>
      <point x="941.1476923076922" y="1262.0338461538463"/>
      <point x="941.1476923076922" y="1081.9384615384618" type="qcurve" smooth="yes"/>
      <point x="941.1476923076922" y="967.9723076923077"/>
      <point x="859.1815384615385" y="805.9753846153847"/>
      <point x="781.833846153846" y="761.9630769230769" type="qcurve"/>
      <point x="781.833846153846" y="758.0" type="line"/>
      <point x="869.3292307692308" y="720.0"/>
      <point x="976.8707692307694" y="542.2984615384614"/>
      <point x="976.8707692307694" y="408.1415384615385" type="qcurve" smooth="yes"/>
      <point x="976.8707692307694" y="211.43999999999997"/>
      <point x="718.9753846153845" y="-25.876923076923077"/>
      <point x="510.5692307692306" y="-25.876923076923077" type="qcurve" smooth="yes"/>
      <point x="302.12615384615384" y="-25.876923076923077"/>
      <point x="45.2123076923077" y="211.55076923076922"/>
    </contour>
    <contour>
      <point x="403.12615384615384" y="428.9569230769231" type="qcurve" smooth="yes"/>
      <point x="403.12615384615384" y="322.2492307692308"/>
      <point x="449.2953846153846" y="216.32000000000002"/>
      <point x="509.5076923076922" y="216.32000000000002" type="qcurve" smooth="yes"/>
      <point x="569.7507692307694" y="216.32000000000002"/>
      <point x="616.8892307692307" y="322.2984615384616"/>
      <point x="616.8892307692307" y="428.9569230769231" type="qcurve" smooth="yes"/>
      <point x="616.8892307692307" y="537.5107692307693"/>
      <point x="570.9846153846154" y="642.8830769230769"/>
      <point x="510.4892307692307" y="642.8830769230769" type="qcurve" smooth="yes"/>
      <point x="449.0123076923077" y="642.8830769230769"/>
      <point x="403.12615384615384" y="537.5969230769231"/>
    </contour>
    <contour>
      <point x="421.9723076923077" y="1041.0" type="qcurve" smooth="yes"/>
      <point x="421.9723076923077" y="945.0197002997003"/>
      <point x="458.0369230769231" y="845.4738461538462"/>
      <point x="509.5076923076922" y="845.4738461538462" type="qcurve" smooth="yes"/>
      <point x="560.9907692307692" y="845.4738461538462"/>
      <point x="599.9630769230772" y="945.0646153846152"/>
      <point x="599.9630769230772" y="1041.0" type="qcurve" smooth="yes"/>
      <point x="599.9630769230772" y="1136.1323076923077"/>
      <point x="560.7199999999999" y="1236.6799999999998"/>
      <point x="509.5076923076922" y="1236.6799999999998" type="qcurve" smooth="yes"/>
      <point x="458.3076923076923" y="1236.6799999999998"/>
      <point x="421.9723076923077" y="1136.088551582197"/>
    </contour>
  </outline>
</glyph>
<glyph name="nine" format="2">
  <advance width="1021"/>
  <unicode hex="0039"/>
  <outline>
    <contour>
      <point x="43.867692307692316" y="964.1476923076922" type="qcurve" smooth="yes"/>
      <point x="43.867692307692316" y="1201.2923076923078"/>
      <point x="303.43692307692305" y="1478.8953846153845"/>
      <point x="499.23076923076917" y="1478.8953846153845" type="qcurve" smooth="yes"/>
      <point x="695.5138461538463" y="1478.8953846153845"/>
      <point x="963.593846153846" y="1181.9261538461537"/>
      <point x="963.593846153846" y="855.0646153846155" type="qcurve" smooth="yes"/>
      <point x="963.593846153846" y="789.9907692307693" type="line" smooth="yes"/>
      <point x="963.593846153846" y="416.1261538461539"/>
      <point x="607.7538461538462" y="-24.959999999999997"/>
      <point x="243.97230769230768" y="-25.71076923076923" type="qcurve" smooth="yes"/>
      <point x="177.79692307692304" y="-25.85846153846154" type="line"/>
      <point x="177.35384615384612" y="254.52615384615382" type="line"/>
      <point x="231.63692307692304" y="254.6984615384615" type="line" smooth="yes"/>
      <point x="429.9661538461539" y="255.3507692307692"/>
      <point x="610.6923076923076" y="507.63692307692315"/>
      <point x="610.6923076923076" y="837.1507692307692" type="qcurve" smooth="yes"/>
      <point x="610.6923076923076" y="881.4553846153847" type="line" smooth="yes"/>
      <point x="610.6923076923076" y="1087.8923076923077"/>
      <point x="557.0153846153845" y="1231.8646153846155"/>
      <point x="498.50153846153853" y="1231.8646153846155" type="qcurve" smooth="yes"/>
      <point x="440.8153846153847" y="1231.8646153846155"/>
      <point x="401.05230769230764" y="1112.6092307692309"/>
      <point x="401.05230769230764" y="960.0184615384615" type="qcurve" smooth="yes"/>
      <point x="401.05230769230764" y="839.3661538461539"/>
      <point x="437.0" y="714.1415384615386"/>
      <point x="494.4953846153847" y="714.1415384615386" type="qcurve" smooth="yes"/>
      <point x="552.0153846153846" y="714.1415384615386"/>
      <point x="614.8646153846155" y="829.3046153846155"/>
      <point x="614.889230769231" y="941.0369230769231" type="qcurve"/>
      <point x="682.8953846153846" y="941.0553846153847" type="line"/>
      <point x="682.8953846153846" y="732.1692307692308"/>
      <point x="518.5476923076923" y="499.19692307692304"/>
      <point x="381.53538461538454" y="499.19692307692304" type="qcurve" smooth="yes"/>
      <point x="219.49538461538464" y="499.19692307692304"/>
      <point x="43.867692307692316" y="742.4738461538462"/>
    </contour>
  </outline>
</glyph>
<glyph name="colon" format="2">
  <advance width="623"/>
  <unicode hex="003A"/>
  <outline>
    <contour>
      <point x="122.1384615384615" y="155.21692307692308" type="qcurve" smooth="yes"/>
      <point x="122.1384615384615" y="228.12030769230773"/>
      <point x="220.12615384615384" y="329.9261538461539"/>
      <point x="311.1307692307692" y="329.9261538461539" type="qcurve" smooth="yes"/>
      <point x="402.50923076923067" y="329.9261538461539"/>
      <point x="500.7230769230769" y="228.12030769230773"/>
      <point x="500.7230769230769" y="155.19846153846154" type="qcurve" smooth="yes"/>
      <point x="500.7230769230769" y="81.1062034739454"/>
      <point x="402.59479999999996" y="-20.64461538461539"/>
      <point x="311.2167076923077" y="-20.64461538461539" type="qcurve" smooth="yes"/>
      <point x="220.19400000000005" y="-20.64461538461539"/>
      <point x="122.1384615384615" y="82.24004962779158"/>
    </contour>
    <contour>
      <point x="122.1384615384615" y="895.3184615384615" type="qcurve" smooth="yes"/>
      <point x="122.1384615384615" y="968.2788052754072"/>
      <point x="220.19400000000005" y="1069.9737846153846"/>
      <point x="311.21670769230764" y="1069.9737846153846" type="qcurve" smooth="yes"/>
      <point x="402.6132615384614" y="1069.9737846153846"/>
      <point x="500.7230769230769" y="968.2788052754072"/>
      <point x="500.7230769230769" y="895.2999999999998" type="qcurve" smooth="yes"/>
      <point x="500.7230769230769" y="821.0495384615389"/>
      <point x="402.4907692307692" y="719.4569230769229"/>
      <point x="311.13076923076915" y="719.4569230769229" type="qcurve" smooth="yes"/>
      <point x="220.12615384615384" y="719.4569230769229"/>
      <point x="122.1384615384615" y="822.2018461538463"/>
    </contour>
  </outline>
</glyph>
<glyph name="semicolon" format="2">
  <advance width="623"/>
  <unicode hex="003B"/>
  <outline>
    <contour>
      <point x="88.23113846153849" y="-190.28153846153847" type="line"/>
      <point x="131.68452307692314" y="-130.34000000000006"/>
      <point x="176.56461538461534" y="0.7507692307692266"/>
      <point x="176.43344615384612" y="79.01692307692308" type="qcurve" smooth="yes"/>
      <point x="176.33846153846156" y="319.77846153846144" type="line"/>
      <point x="478.1661538461538" y="319.77846153846144" type="line"/>
      <point x="478.24304615384614" y="81.46307692307693" type="line" smooth="yes"/>
      <point x="478.2738153846154" y="-17.490769230769235"/>
      <point x="398.06670769230766" y="-194.43692307692314"/>
      <point x="329.24916923076927" y="-253.51307692307688" type="qcurve"/>
    </contour>
    <contour>
      <point x="124.39999999999998" y="895.3184615384615" type="qcurve" smooth="yes"/>
      <point x="124.39999999999998" y="968.2788052754072"/>
      <point x="221.28743307716803" y="1069.9737846153846"/>
      <point x="311.2351692307692" y="1069.9737846153846" type="qcurve" smooth="yes"/>
      <point x="401.5027582065692" y="1069.9737846153846"/>
      <point x="498.4615384615383" y="968.2788052754072"/>
      <point x="498.4615384615383" y="895.2999999999998" type="qcurve" smooth="yes"/>
      <point x="498.4615384615383" y="821.207741935484"/>
      <point x="401.5861538461538" y="719.4569230769229"/>
      <point x="311.1307692307692" y="719.4569230769229" type="qcurve" smooth="yes"/>
      <point x="221.25692307692307" y="719.4569230769229"/>
      <point x="124.39999999999998" y="822.3600496277917"/>
    </contour>
  </outline>
</glyph>
<glyph name="greater" format="2">
  <advance width="1025"/>
  <unicode hex="003E"/>
  <outline>
    <contour>
      <point x="162.49661538461538" y="143.6738461538461" type="line"/>
      <point x="162.49661538461538" y="459.76923076923066" type="line"/>
      <point x="578.8394153846154" y="681.7353846153848" type="line"/>
      <point x="162.49661538461538" y="900.0369230769234" type="line"/>
      <point x="162.49661538461538" y="1210.3169230769236" type="line"/>
      <point x="872.6741538461539" y="815.0361538461539" type="line"/>
      <point x="872.6741538461539" y="542.6192307692306" type="line"/>
    </contour>
  </outline>
</glyph>
<glyph name="D" format="2">
  <advance width="1237"/>
  <unicode hex="0044"/>
  <outline>
    <contour>
      <point x="119.32000000000004" y="0.0" type="line"/>
      <point x="119.32000000000004" y="1456.0" type="line"/>
      <point x="591.0111384615384" y="1456.0" type="line" smooth="yes"/>
      <point x="845.7796284878872" y="1456.0"/>
      <point x="1156.9164923076924" y="1093.5215384615383"/>
      <point x="1156.9164923076924" y="779.2584615384616" type="qcurve" smooth="yes"/>
      <point x="1156.9164923076924" y="679.6307692307693" type="line" smooth="yes"/>
      <point x="1156.9164923076924" y="366.0676923076924"/>
      <point x="842.4411669494253" y="0.0"/>
      <point x="590.3649846153845" y="0.0" type="qcurve" smooth="yes"/>
    </contour>
    <contour>
      <point x="471.87267692307694" y="252.30153846153848" type="line"/>
      <point x="562.8849846153847" y="252.30153846153848" type="line" smooth="yes"/>
      <point x="669.841977154618" y="252.30153846153848"/>
      <point x="792.8049846153846" y="450.95615384615377"/>
      <point x="792.8049846153846" y="639.389230769231" type="qcurve" smooth="yes"/>
      <point x="792.8049846153846" y="814.7215384615384" type="line" smooth="yes"/>
      <point x="792.8049846153846" y="1004.6869230769231"/>
      <point x="670.8404386930792" y="1196.0184615384615"/>
      <point x="562.9219076923079" y="1196.0184615384615" type="qcurve" smooth="yes"/>
      <point x="471.87267692307694" y="1196.0184615384615" type="line"/>
    </contour>
  </outline>
</glyph>
<glyph name="E" format="2">
  <advance width="1059"/>
  <unicode hex="0045"/>
  <anchor x="631.632676923077" y="1359.8892307692308" name="top"/>
  <outline>
    <contour>
      <point x="119.32000000000004" y="0.0" type="line"/>
      <point x="119.32000000000004" y="1456.0" type="line"/>
      <point x="995.8619076923079" y="1456.0" type="line"/>
      <point x="995.8619076923079" y="1175.7753846153846" type="line"/>
      <point x="468.1342153846153" y="1175.7753846153846" type="line"/>
      <point x="468.1342153846153" y="869.2430769230771" type="line"/>
      <point x="911.0034461538462" y="869.2430769230771" type="line"/>
      <point x="911.0034461538462" y="612.9015384615385" type="line"/>
      <point x="468.1342153846153" y="612.9015384615385" type="line"/>
      <point x="468.1342153846153" y="273.11692307692294" type="line"/>
      <point x="1009.3726769230766" y="273.11692307692294" type="line"/>
      <point x="1009.3726769230766" y="0.0" type="line"/>
    </contour>
  </outline>
</glyph>
<glyph name="G" format="2">
  <advance width="1190"/>
  <unicode hex="0047"/>
  <outline>
    <contour>
      <point x="79.74923076923078" y="677.3246153846153" type="qcurve" smooth="yes"/>
      <point x="79.74923076923078" y="778.7553846153847" type="line" smooth="yes"/>
      <point x="79.74923076923078" y="1119.8046153846158"/>
      <point x="392.7847692307691" y="1482.181538461538"/>
      <point x="640.156123076923" y="1482.181538461538" type="qcurve" smooth="yes"/>
      <point x="872.687722027344" y="1482.181538461538"/>
      <point x="1127.9065230769224" y="1217.148461538461"/>
      <point x="1128.364646153846" y="1021.5661538461538" type="qcurve" smooth="yes"/>
      <point x="1128.8654153846153" y="986.7553846153846" type="line"/>
      <point x="783.4668923076922" y="986.7553846153846" type="line"/>
      <point x="782.9661230769228" y="1008.3353846153848" type="line" smooth="yes"/>
      <point x="783.1404923076922" y="1092.9338461538462"/>
      <point x="705.472276923077" y="1217.171538461539"/>
      <point x="631.2038153846154" y="1217.171538461539" type="qcurve" smooth="yes"/>
      <point x="551.2953538461538" y="1217.171538461539"/>
      <point x="450.7345846153847" y="1028.6549691184728"/>
      <point x="450.7345846153847" y="847.6784615384618" type="qcurve" smooth="yes"/>
      <point x="450.7345846153847" y="603.3369230769232" type="line" smooth="yes"/>
      <point x="450.7345846153847" y="428.2311847276811"/>
      <point x="557.252276923077" y="229.95923076923077"/>
      <point x="653.6515076923075" y="229.95923076923077" type="qcurve" smooth="yes"/>
      <point x="696.9396307692307" y="229.95923076923077"/>
      <point x="756.8297230769231" y="251.4407692307692"/>
      <point x="788.3409230769231" y="275.9669230769231" type="qcurve"/>
      <point x="788.3409230769231" y="533.7092307692309" type="line"/>
      <point x="635.3868923076923" y="533.7092307692309" type="line"/>
      <point x="635.3868923076923" y="780.8630769230767" type="line"/>
      <point x="1132.1808" y="781.610769230769" type="line"/>
      <point x="1132.1808" y="161.2707692307692" type="line"/>
      <point x="1072.2658251482785" y="94.79160551459515"/>
      <point x="835.9711160839162" y="-26.163076923076925"/>
      <point x="651.1268923076924" y="-26.163076923076925" type="qcurve" smooth="yes"/>
      <point x="394.27646153846155" y="-26.163076923076925"/>
      <point x="79.74923076923078" y="336.26307692307694"/>
    </contour>
  </outline>
</glyph>
<glyph name="K" format="2">
  <advance width="1174"/>
  <unicode hex="004B"/>
  <outline>
    <contour>
      <point x="119.32000000000004" y="0.0" type="line"/>
      <point x="119.32000000000004" y="1456.0" type="line"/>
      <point x="479.3496" y="1456.0" type="line"/>
      <point x="479.3496" y="909.8346153846153" type="line"/>
      <point x="832.7846153846157" y="1456.0" type="line"/>
      <point x="1187.9465230769235" y="1456.0" type="line"/>
      <point x="479.3496" y="470.4630769230768" type="line"/>
      <point x="479.3496" y="0.0" type="line"/>
    </contour>
    <contour>
      <point x="829.9689846153843" y="0.0" type="line"/>
      <point x="464.7044923076923" y="684.9415384615385" type="line"/>
      <point x="676.4180307692307" y="959.1015384615382" type="line"/>
      <point x="1224.7828307692312" y="0.0" type="line"/>
    </contour>
  </outline>
</glyph>
<glyph name="S" format="2">
  <advance width="1094"/>
  <unicode hex="0053"/>
  <outline>
    <contour>
      <point x="54.058461538461536" y="385.8584615384615" type="qcurve" smooth="yes"/>
      <point x="54.058461538461536" y="444.66615384615386" type="line"/>
      <point x="389.80959999999993" y="444.66615384615386" type="line"/>
      <point x="389.80959999999993" y="408.07076923076926" type="line" smooth="yes"/>
      <point x="389.4419076923076" y="313.7330769230769"/>
      <point x="473.01806153846155" y="222.01307692307694"/>
      <point x="548.8719076923078" y="222.01307692307694" type="qcurve" smooth="yes"/>
      <point x="621.1288307692307" y="222.01307692307694"/>
      <point x="699.6149846153847" y="308.173076923077"/>
      <point x="699.6149846153847" y="380.96461538461546" type="qcurve" smooth="yes"/>
      <point x="699.6149846153847" y="456.41153846153856"/>
      <point x="620.5814769230769" y="539.1338461538463"/>
      <point x="465.2892923076923" y="607.9461538461536" type="qcurve" smooth="yes"/>
      <point x="283.2463384615384" y="685.6153846153842"/>
      <point x="68.03375384615386" y="884.4069230769231"/>
      <point x="68.03375384615386" y="1065.963076923077" type="qcurve" smooth="yes"/>
      <point x="68.03375384615386" y="1254.375384615385"/>
      <point x="324.4096000000001" y="1481.3169230769224"/>
      <point x="539.556523076923" y="1481.3169230769224" type="qcurve" smooth="yes"/>
      <point x="755.3218153846153" y="1481.3169230769224"/>
      <point x="1016.8307384615383" y="1257.4976923076927"/>
      <point x="1016.8307384615383" y="1080.4276923076918" type="qcurve" smooth="yes"/>
      <point x="1016.8307384615383" y="1027.9446153846154" type="line"/>
      <point x="685.2119076923077" y="1027.9446153846154" type="line"/>
      <point x="685.2119076923077" y="1059.5307692307688" type="line" smooth="yes"/>
      <point x="685.2119076923077" y="1136.7946153846153"/>
      <point x="613.7442153846156" y="1227.9069230769228"/>
      <point x="544.7719076923078" y="1227.9069230769228" type="qcurve" smooth="yes"/>
      <point x="475.082676923077" y="1227.9069230769228"/>
      <point x="410.15036923076923" y="1162.5300000000002"/>
      <point x="410.15036923076923" y="1094.493846153846" type="qcurve" smooth="yes"/>
      <point x="410.15036923076923" y="1028.186923076923"/>
      <point x="485.8636923076923" y="946.8830769230769"/>
      <point x="652.6452923076926" y="879.0815384615386" type="qcurve" smooth="yes"/>
      <point x="823.1422769230771" y="809.7861538461538"/>
      <point x="1040.688523076923" y="600.9561538461538"/>
      <point x="1040.688523076923" y="407.8276923076923" type="qcurve" smooth="yes"/>
      <point x="1040.688523076923" y="209.29230769230776"/>
      <point x="773.9845538461539" y="-25.978461538461538"/>
      <point x="552.9242153846153" y="-25.99692307692308" type="qcurve" smooth="yes"/>
      <point x="332.36593846153835" y="-26.015384615384615"/>
      <point x="54.058461538461536" y="189.76076923076917"/>
    </contour>
  </outline>
</glyph>
<glyph name="Z" format="2">
  <advance width="1053"/>
  <unicode hex="005A"/>
  <outline>
    <contour>
      <point x="26.510769230769235" y="0.0" type="line"/>
      <point x="26.510769230769235" y="209.6707692307692" type="line"/>
      <point x="544.8350769230772" y="1175.8" type="line"/>
      <point x="42.45076923076922" y="1175.8" type="line"/>
      <point x="42.45076923076922" y="1456.0" type="line"/>
      <point x="991.6854153846155" y="1456.0" type="line"/>
      <point x="991.6854153846155" y="1238.8523076923072" type="line"/>
      <point x="476.79187692307687" y="272.72307692307686" type="line"/>
      <point x="1027.186953846154" y="272.72307692307686" type="line"/>
      <point x="1027.186953846154" y="0.0" type="line"/>
    </contour>
  </outline>
</glyph>
<glyph name="backslash" format="2">
  <advance width="611"/>
  <unicode hex="005C"/>
  <outline>
    <contour>
      <point x="-68.88615384615383" y="1456.0" type="line"/>
      <point x="229.07846153846148" y="1456.0" type="line"/>
      <point x="679.9523076923081" y="-123.06153846153846" type="line"/>
      <point x="383.4561538461538" y="-123.06153846153846" type="line"/>
    </contour>
  </outline>
</glyph>
<glyph name="underscore" format="2">
  <advance width="744"/>
  <unicode hex="005F"/>
  <outline>
    <contour>
      <point x="0.0" y="-243.46923076923068" type="line"/>
      <point x="0.0" y="7.64615384615387" type="line"/>
      <point x="743.0400000000002" y="7.64615384615387" type="line"/>
      <point x="743.0400000000002" y="-243.46923076923068" type="line"/>
    </contour>
  </outline>
</glyph>
<glyph name="f" format="2">
  <advance width="617"/>
  <unicode hex="0066"/>
  <outline>
    <contour>
      <point x="126.9" y="0.0" type="line"/>
      <point x="126.9" y="1128.9276923076925" type="line" smooth="yes"/>
      <point x="126.9" y="1323.5761538461536"/>
      <point x="349.42359295361126" y="1525.88"/>
      <point x="543.3632615384614" y="1525.88" type="qcurve" smooth="yes"/>
      <point x="578.6271076923076" y="1525.88"/>
      <point x="643.1509538461538" y="1516.6169230769226"/>
      <point x="674.818646153846" y="1508.3230769230765" type="qcurve"/>
      <point x="663.1394153846154" y="1257.4907692307697" type="line"/>
      <point x="647.5348" y="1261.712307692308"/>
      <point x="611.1909538461539" y="1267.2646153846154"/>
      <point x="587.1186461538462" y="1267.2646153846154" type="qcurve" smooth="yes"/>
      <point x="530.4747723298285" y="1267.2646153846154"/>
      <point x="468.77710769230765" y="1179.9415384615388"/>
      <point x="468.77710769230765" y="1090.418461538461" type="qcurve" smooth="yes"/>
      <point x="468.77710769230765" y="934.7607076923077" type="line"/>
      <point x="472.51556923076936" y="917.7560923076923" type="line"/>
      <point x="472.51556923076936" y="0.0" type="line"/>
    </contour>
    <contour>
      <point x="16.903076923076927" y="759.6599384615384" type="line"/>
      <point x="16.903076923076927" y="1004.7445538461538" type="line"/>
      <point x="212.70701538461537" y="1004.7445538461538" type="line"/>
      <point x="238.7839384615384" y="1004.7445538461538" type="line"/>
      <point x="620.3555692307692" y="1004.7445538461538" type="line"/>
      <point x="620.3555692307692" y="759.6599384615384" type="line"/>
    </contour>
  </outline>
</glyph>
<glyph name="g" format="2">
  <advance width="1091"/>
  <unicode hex="0067"/>
  <outline>
    <contour>
      <point x="97.54646153846156" y="-322.09846153846155" type="qcurve"/>
      <point x="175.90006153846156" y="-86.89692307692304" type="line"/>
      <point x="214.9232582504722" y="-127.95588862485558"/>
      <point x="377.9984102564104" y="-202.1169230769231"/>
      <point x="456.579846153846" y="-202.1169230769231" type="qcurve" smooth="yes"/>
      <point x="533.6475982905982" y="-202.1169230769231"/>
      <point x="649.6319999999998" y="-87.85923076923076"/>
      <point x="649.6319999999998" y="31.498461538461548" type="qcurve" smooth="yes"/>
      <point x="649.6319999999998" y="105.78615384615384" type="line"/>
      <point x="614.1226769230772" y="49.61230769230769"/>
      <point x="501.2769538461537" y="-16.529230769230775"/>
      <point x="404.91399999999993" y="-16.529230769230775" type="qcurve" smooth="yes"/>
      <point x="247.63800000000012" y="-16.529230769230775"/>
      <point x="56.2476923076923" y="264.65229027576197"/>
      <point x="56.2476923076923" y="483.37996923076923" type="qcurve" smooth="yes"/>
      <point x="56.2476923076923" y="522.875353846154" type="line" smooth="yes"/>
      <point x="56.2476923076923" y="741.5746455822813"/>
      <point x="240.5487692307693" y="1024.5537846153845"/>
      <point x="401.64169230769215" y="1024.5537846153845" type="qcurve" smooth="yes"/>
      <point x="484.5569538461537" y="1024.5537846153845"/>
      <point x="615.6769538461541" y="950.2168615384614"/>
      <point x="647.1327692307694" y="893.3383999999999" type="qcurve"/>
      <point x="650.2227692307692" y="893.3383999999999" type="line"/>
      <point x="653.9381538461537" y="1004.7445538461538" type="line"/>
      <point x="993.4952615384612" y="1004.7445538461538" type="line"/>
      <point x="993.4952615384612" y="79.22461538461539" type="line" smooth="yes"/>
      <point x="993.4952615384612" y="-172.94230769230765"/>
      <point x="732.4682153846154" y="-443.1384615384616"/>
      <point x="514.5866153846152" y="-443.1384615384616" type="qcurve" smooth="yes"/>
      <point x="383.18784615384607" y="-443.1384615384616"/>
      <point x="169.2709538461539" y="-373.12307692307695"/>
    </contour>
    <contour>
      <point x="404.93046153846166" y="485.17535384615377" type="line" smooth="yes"/>
      <point x="404.93046153846166" y="371.9383623931625"/>
      <point x="465.8181538461538" y="220.26"/>
      <point x="529.9527692307691" y="220.26" type="qcurve" smooth="yes"/>
      <point x="572.9327692307692" y="220.26"/>
      <point x="632.3643076923076" y="284.0976923076924"/>
      <point x="646.4150769230772" y="326.0938461538462" type="qcurve"/>
      <point x="646.4150769230772" y="678.4845538461536" type="line"/>
      <point x="632.3643076923076" y="720.5976307692309"/>
      <point x="572.8096923076922" y="784.5276307692309"/>
      <point x="529.9035384615381" y="784.5276307692309" type="qcurve" smooth="yes"/>
      <point x="465.7750769230768" y="784.5276307692309"/>
      <point x="404.93046153846166" y="632.1338840236687"/>
      <point x="404.93046153846166" y="518.6984307692308" type="qcurve" smooth="yes"/>
    </contour>
  </outline>
</glyph>
<glyph name="r" format="2">
  <advance width="724"/>
  <unicode hex="0072"/>
  <outline>
    <contour>
      <point x="97.88615384615385" y="0.0" type="line"/>
      <point x="97.88615384615385" y="1004.7445538461538" type="line"/>
      <point x="442.6248" y="1004.7445538461538" type="line"/>
      <point x="446.34018461538466" y="898.0784" type="line"/>
      <point x="448.35787692307696" y="898.0784" type="line"/>
      <point x="477.7447223448464" y="954.040200524484"/>
      <point x="569.6424923076922" y="1027.916861538462"/>
      <point x="626.3701846153846" y="1027.916861538462" type="qcurve" smooth="yes"/>
      <point x="653.8594153846153" y="1027.916861538462"/>
      <point x="697.4040307692308" y="1018.426092307692"/>
      <point x="705.9786461538461" y="1014.426092307692" type="qcurve"/>
      <point x="705.9540307692307" y="748.7583999999998" type="line"/>
      <point x="688.7655692307692" y="755.3076307692305"/>
      <point x="645.7148000000002" y="761.1768615384614"/>
      <point x="620.0094153846154" y="761.1768615384614" type="qcurve" smooth="yes"/>
      <point x="567.9667526627219" y="761.1768615384614"/>
      <point x="477.4681340134415" y="690.3936119232761"/>
      <point x="452.33710769230765" y="632.6860923076922" type="qcurve"/>
      <point x="452.3740307692307" y="0.0" type="line"/>
    </contour>
  </outline>
</glyph>
<glyph name="x" format="2">
  <advance width="927"/>
  <unicode hex="0078"/>
  <outline>
    <contour>
      <point x="6.40615384615385" y="0.0" type="line"/>
      <point x="316.57692307692315" y="583.155353846154" type="line"/>
      <point x="394.0109230769231" y="583.6476615384615" type="line"/>
      <point x="602.7516923076923" y="1004.7445538461538" type="line"/>
      <point x="908.3100000000001" y="1004.7445538461538" type="line"/>
      <point x="606.28" y="430.9845846153845" type="line"/>
      <point x="513.4029230769231" y="430.49227692307693" type="line"/>
      <point x="311.1244615384614" y="0.0" type="line"/>
    </contour>
    <contour>
      <point x="20.10230769230769" y="1004.7445538461538" type="line"/>
      <point x="379.13615384615395" y="1004.7445538461538" type="line"/>
      <point x="592.1707692307692" y="574.2492000000001" type="line"/>
      <point x="613.5769230769232" y="573.8922769230768" type="line"/>
      <point x="920.5030769230772" y="0.0" type="line"/>
      <point x="561.1061538461538" y="0.0" type="line"/>
      <point x="340.0015384615385" y="445.9138153846154" type="line"/>
      <point x="319.2492307692308" y="446.2338153846154" type="line"/>
    </contour>
  </outline>
</glyph>
<glyph name="braceright" format="2">
  <advance width="780"/>
  <unicode hex="007D"/>
  <outline>
    <contour>
      <point x="84.73076923076924" y="-312.72923076923075" type="qcurve"/>
      <point x="84.73076923076924" y="-71.13076923076925" type="line"/>
      <point x="177.44356923076924" y="-71.13076923076925"/>
      <point x="277.3915692307693" y="12.958461538461538"/>
      <point x="256.86030769230774" y="121.17846153846153" type="qcurve" smooth="yes"/>
      <point x="213.39538461538467" y="333.27076923076925" type="line" smooth="yes"/>
      <point x="194.49615384615385" y="417.4969230769231"/>
      <point x="269.53076923076935" y="539.4184615384615"/>
      <point x="368.74538461538464" y="573.2707692307692" type="qcurve"/>
      <point x="269.53076923076935" y="607.123076923077"/>
      <point x="194.49615384615385" y="729.0446153846154"/>
      <point x="213.39538461538467" y="813.2707692307692" type="qcurve" smooth="yes"/>
      <point x="256.86030769230774" y="1025.3446153846157" type="line" smooth="yes"/>
      <point x="277.3915692307693" y="1133.583076923077"/>
      <point x="177.44356923076924" y="1217.6723076923076"/>
      <point x="84.73076923076924" y="1217.6723076923076" type="qcurve"/>
      <point x="84.73076923076924" y="1459.270769230769" type="line"/>
      <point x="384.66003076923073" y="1466.6000000000004"/>
      <point x="616.015969230769" y="1239.8753846153854"/>
      <point x="576.824246153846" y="1055.618461538462" type="qcurve" smooth="yes"/>
      <point x="533.359323076923" y="836.2153846153848" type="line" smooth="yes"/>
      <point x="516.3577846153846" y="748.5192307692306"/>
      <point x="611.0756" y="695.5723076923078"/>
      <point x="697.6163999999999" y="695.5723076923078" type="qcurve"/>
      <point x="697.6163999999999" y="450.9507692307693" type="line"/>
      <point x="611.0756" y="450.9507692307693"/>
      <point x="516.3577846153846" y="398.00384615384615"/>
      <point x="533.359323076923" y="310.32615384615383" type="qcurve" smooth="yes"/>
      <point x="576.824246153846" y="90.9046153846154" type="line" smooth="yes"/>
      <point x="615.2682769230767" y="-90.04307692307687"/>
      <point x="384.66003076923073" y="-316.39384615384614"/>
    </contour>
  </outline>
</glyph>
<glyph name="macron" format="2">
  <advance width="1018"/>
  <unicode hex="00AF"/>
  <anchor x="473.0" y="1577.0" name="mkmktop_acc"/>
  <outline>
    <contour>
      <point x="820.806153846154" y="1425.6923076923076" type="line"/>
      <point x="820.806153846154" y="1274.3938461538462" type="line"/>
      <point x="196.74461538461537" y="1274.3938461538462" type="line"/>
      <point x="196.74461538461537" y="1425.6923076923076" type="line"/>
    </contour>
  </outline>
</glyph>
<glyph name="degree" format="2">
  <advance width="761"/>
  <unicode hex="00B0"/>
  <outline>
    <contour>
      <point x="129.78153846153847" y="1217.0" type="qcurve"/>
      <point x="129.78153846153847" y="1116.5948564867967"/>
      <point x="280.6850057405282" y="975.3046153846153"/>
      <point x="384.1907692307692" y="975.3046153846153" type="qcurve" smooth="yes"/>
      <point x="486.94245694603893" y="975.3046153846153"/>
      <point x="634.6" y="1116.5943053960964"/>
      <point x="634.6" y="1217.0" type="qcurve" smooth="yes"/>
      <point x="634.6" y="1316.6809184845006"/>
      <point x="486.9421814006888" y="1461.6953846153845"/>
      <point x="384.1907692307692" y="1461.6953846153845" type="qcurve" smooth="yes"/>
      <point x="280.6899655568312" y="1461.6953846153845"/>
      <point x="129.78153846153847" y="1316.6756831228472"/>
    </contour>
    <contour>
      <point x="253.35076923076923" y="1217.0" type="qcurve"/>
      <point x="253.35076923076923" y="1161.8404133180252"/>
      <point x="330.5176578645235" y="1088.16"/>
      <point x="384.1907692307692" y="1088.16" type="qcurve" smooth="yes"/>
      <point x="437.8515729047072" y="1088.16"/>
      <point x="511.03076923076924" y="1161.8404133180252"/>
      <point x="511.03076923076924" y="1217.0" type="qcurve" smooth="yes"/>
      <point x="511.03076923076924" y="1272.908978185993"/>
      <point x="437.8515729047072" y="1348.84"/>
      <point x="384.1907692307692" y="1348.84" type="qcurve" smooth="yes"/>
      <point x="330.5176578645235" y="1348.84"/>
      <point x="253.35076923076923" y="1272.908978185993"/>
    </contour>
  </outline>
</glyph>
<glyph name="circumflex" format="2">
  <advance width="1018"/>
  <unicode hex="02C6"/>
  <anchor x="471.0" y="1637.0" name="mkmktop_acc"/>
  <outline>
    <contour>
      <point x="564.5292307692307" y="1511.5323076923078" type="line"/>
      <point x="811.076923076923" y="1200.033846153846" type="line"/>
      <point x="657.7538461538461" y="1200.033846153846" type="line"/>
      <point x="508.713846153846" y="1358.184615384615" type="line"/>
      <point x="360.67384615384617" y="1200.033846153846" type="line"/>
      <point x="209.33846153846153" y="1200.033846153846" type="line"/>
      <point x="452.89846153846156" y="1511.5323076923078" type="line"/>
    </contour>
  </outline>
</glyph>
<glyph name="dotaccent" format="2">
  <advance width="1018"/>
  <unicode hex="02D9"/>
  <anchor x="250.0" y="1572.0" name="mkmktop_acc"/>
  <outline>
    <contour>
      <point x="389.24307692307696" y="1337.2338461538466" type="qcurve" smooth="yes"/>
      <point x="389.24307692307696" y="1381.0738461538463"/>
      <point x="454.9846153846153" y="1452.803076923077"/>
      <point x="508.7753846153846" y="1452.803076923077" type="qcurve" smooth="yes"/>
      <point x="561.5661538461538" y="1452.803076923077"/>
      <point x="628.3076923076925" y="1381.0738461538463"/>
      <point x="628.3076923076925" y="1337.2338461538466" type="qcurve" smooth="yes"/>
      <point x="628.3076923076925" y="1293.393846153846"/>
      <point x="561.5661538461538" y="1222.6646153846154"/>
      <point x="508.7753846153846" y="1222.6646153846154" type="qcurve" smooth="yes"/>
      <point x="454.9846153846153" y="1222.6646153846154"/>
      <point x="389.24307692307696" y="1293.393846153846"/>
    </contour>
  </outline>
</glyph>
<glyph name="brevebelowcomb" format="2">
  <advance width="1018"/>
  <unicode hex="032E"/>
  <outline>
    <contour>
      <point x="797.9661538461539" y="-126.8646153846154" type="qcurve"/>
      <point x="890.5353846153847" y="-196.33538461538456" type="line"/>
      <point x="851.7569230769229" y="-295.0892307692308"/>
      <point x="651.9138461538462" y="-461.26461538461535"/>
      <point x="508.7507692307692" y="-461.26461538461535" type="qcurve" smooth="yes"/>
      <point x="381.4892307692308" y="-461.26461538461535"/>
      <point x="175.68307692307698" y="-309.00307692307683"/>
      <point x="127.95384615384614" y="-195.33538461538456" type="qcurve"/>
      <point x="227.49846153846158" y="-126.8646153846154" type="line"/>
      <point x="270.24" y="-189.64307692307693"/>
      <point x="414.34153846153845" y="-293.1015384615385"/>
      <point x="508.7630769230769" y="-293.1015384615385" type="qcurve" smooth="yes"/>
      <point x="610.1353846153846" y="-293.1015384615385"/>
      <point x="755.1999999999998" y="-194.64307692307693"/>
    </contour>
  </outline>
</glyph>
<glyph name="endash" format="2">
  <advance width="1018"/>
  <unicode hex="2013"/>
  <outline>
    <contour>
      <point x="0.0" y="532.0" type="line"/>
      <point x="0.0" y="699.1384615384615" type="line"/>
      <point x="1017.5507692307692" y="699.1384615384615" type="line"/>
      <point x="1017.5507692307692" y="532.0" type="line"/>
    </contour>
  </outline>
</glyph>
<glyph name="quotedblleft" format="2">
  <advance width="826"/>
  <unicode hex="201C"/>
  <outline>
    <contour>
      <point x="91.63076923076923" y="1074.403076923077" type="line"/>
      <point x="91.63076923076923" y="1194.8984615384616" type="line" smooth="yes"/>
      <point x="91.63076923076923" y="1284.5415384615385"/>
      <point x="182.17538461538462" y="1487.7046153846154"/>
      <point x="264.74461538461543" y="1555.4215384615384" type="qcurve"/>
      <point x="369.2153846153846" y="1482.7169230769232" type="line"/>
      <point x="323.4369230769231" y="1417.0"/>
      <point x="273.6953846153846" y="1278.5538461538463"/>
      <point x="273.6953846153846" y="1197.886153846154" type="qcurve" smooth="yes"/>
      <point x="273.6953846153846" y="1074.403076923077" type="line"/>
    </contour>
    <contour>
      <point x="509.04615384615386" y="1074.403076923077" type="line"/>
      <point x="509.04615384615386" y="1194.8984615384616" type="line" smooth="yes"/>
      <point x="509.04615384615386" y="1284.5415384615385"/>
      <point x="599.5907692307692" y="1487.7046153846154"/>
      <point x="682.16" y="1555.4215384615384" type="qcurve"/>
      <point x="786.6307692307693" y="1482.7169230769232" type="line"/>
      <point x="740.8523076923077" y="1417.0"/>
      <point x="691.1107692307692" y="1278.5538461538463"/>
      <point x="691.1107692307692" y="1197.886153846154" type="qcurve" smooth="yes"/>
      <point x="691.1107692307692" y="1074.403076923077" type="line"/>
    </contour>
  </outline>
</glyph>
<glyph name="breveinvertedcomb.case" format="2">
  <advance width="1018"/>
  <outline>
    <contour>
      <point x="220.52307692307696" y="1611.3384615384616" type="qcurve"/>
      <point x="127.95384615384614" y="1680.8092307692307" type="line"/>
      <point x="166.7446153846154" y="1779.4030769230772"/>
      <point x="366.57538461538456" y="1945.7384615384615"/>
      <point x="509.7384615384616" y="1945.7384615384615" type="qcurve" smooth="yes"/>
      <point x="637.0" y="1945.7384615384615"/>
      <point x="842.8061538461538" y="1793.3538461538462"/>
      <point x="890.5353846153847" y="1679.8092307692307" type="qcurve"/>
      <point x="790.9907692307692" y="1611.3384615384616" type="line"/>
      <point x="748.2492307692307" y="1674.0430769230768"/>
      <point x="604.1476923076923" y="1777.5753846153846"/>
      <point x="509.7261538461537" y="1777.5753846153846" type="qcurve" smooth="yes"/>
      <point x="408.3538461538462" y="1777.5753846153846"/>
      <point x="263.2646153846154" y="1679.0061538461537"/>
    </contour>
  </outline>
</glyph>
<glyph name="commaaccentcomb.case" format="2">
  <advance width="1018"/>
  <outline>
    <contour>
      <point x="330.80923076923074" y="-644.5538461538462" type="line"/>
      <point x="359.79692307692306" y="-540.7261538461538"/>
      <point x="396.7107692307692" y="-372.5753846153846"/>
      <point x="428.56307692307695" y="-234.4" type="qcurve"/>
      <point x="641.32" y="-232.4246153846154" type="line"/>
      <point x="504.8123076923077" y="-647.5784615384615" type="line"/>
    </contour>
  </outline>
</glyph>
<glyph name="diagonalbarL" format="2">
  <advance width="736"/>
  <outline>
    <contour>
      <point x="79.70461538461538" y="446.6523076923077" type="line"/>
      <point x="0.0" y="584.0" type="line"/>
      <point x="659.1753846153846" y="992.2676923076921" type="line"/>
      <point x="739.8800000000002" y="857.9200000000002" type="line"/>
    </contour>
  </outline>
</glyph>
<glyph name="horizontalbarH" format="2">
  <advance width="1444"/>
  <outline>
    <contour>
      <point x="1428.9415384615386" y="1027.221538461538" type="line"/>
      <point x="1208.5046153846154" y="1025.2461538461534" type="line"/>
      <point x="1208.5046153846154" y="1161.8769230769228" type="line"/>
      <point x="1438.8184615384616" y="1163.8523076923075" type="line"/>
    </contour>
    <contour>
      <point x="14.876923076923072" y="1025.2461538461534" type="line"/>
      <point x="5.987692307692308" y="1161.8769230769228" type="line"/>
      <point x="243.23999999999998" y="1161.8769230769228" type="line"/>
      <point x="243.23999999999998" y="1025.2461538461534" type="line"/>
    </contour>
    <contour>
      <point x="243.23999999999998" y="1035.246153846154" type="line"/>
      <point x="243.23999999999998" y="1151.8769230769235" type="line"/>
      <point x="1208.5046153846154" y="1151.8769230769235" type="line"/>
      <point x="1208.5046153846154" y="1035.246153846154" type="line"/>
    </contour>
  </outline>
</glyph>
<glyph name="macroncomb.case" format="2">
  <advance width="1018"/>
  <outline>
    <contour>
      <point x="214.39999999999998" y="1671.92" type="line"/>
      <point x="214.39999999999998" y="1827.2061538461537" type="line"/>
      <point x="803.1507692307692" y="1827.2061538461537" type="line"/>
      <point x="803.1507692307692" y="1671.92" type="line"/>
    </contour>
  </outline>
</glyph>
<glyph name="ringcomb.case" format="2">
  <advance width="1018"/>
  <outline>
    <contour>
      <point x="271.0923076923077" y="1819.1569230769232" type="qcurve" smooth="yes"/>
      <point x="271.0923076923077" y="1918.5784615384614"/>
      <point x="405.3538461538461" y="2046.9384615384615"/>
      <point x="508.7753846153846" y="2046.9384615384615" type="qcurve" smooth="yes"/>
      <point x="612.1723076923075" y="2046.9384615384615"/>
      <point x="746.4584615384613" y="1918.5784615384614"/>
      <point x="746.4584615384613" y="1819.1569230769232" type="qcurve" smooth="yes"/>
      <point x="746.4584615384613" y="1719.6984615384615"/>
      <point x="612.1723076923075" y="1591.3876923076923"/>
      <point x="508.7753846153846" y="1591.3876923076923" type="qcurve"/>
      <point x="405.3538461538461" y="1591.3876923076923"/>
      <point x="271.0923076923077" y="1719.6984615384615"/>
    </contour>
    <contour>
      <point x="396.3784615384615" y="1819.1446153846155" type="qcurve" smooth="yes"/>
      <point x="396.3784615384615" y="1768.4523076923076"/>
      <point x="457.07076923076914" y="1706.7353846153846"/>
      <point x="508.7753846153846" y="1706.7353846153846" type="qcurve" smooth="yes"/>
      <point x="563.4430769230769" y="1706.7353846153846"/>
      <point x="621.1723076923078" y="1764.4892307692307"/>
      <point x="621.1723076923078" y="1819.1446153846155" type="qcurve" smooth="yes"/>
      <point x="621.1723076923078" y="1869.8246153846155"/>
      <point x="560.48" y="1931.5538461538463"/>
      <point x="508.7753846153846" y="1931.5538461538463" type="qcurve" smooth="yes"/>
      <point x="454.10769230769233" y="1931.5538461538463"/>
      <point x="396.3784615384615" y="1873.7753846153846"/>
    </contour>
  </outline>
</glyph>
<glyph name="six.prop" format="2">
  <advance width="1126"/>
  <outline>
    <contour>
      <point x="79.39692307692307" y="613.5446153846153" type="qcurve" smooth="yes"/>
      <point x="79.39692307692307" y="644.1723076923076" type="line" smooth="yes"/>
      <point x="79.39692307692307" y="1025.4892307692307"/>
      <point x="487.32307692307694" y="1484.8553846153845"/>
      <point x="864.16" y="1485.6061538461538" type="qcurve" smooth="yes"/>
      <point x="884.2092307692308" y="1485.7538461538463" type="line"/>
      <point x="884.6523076923078" y="1328.6399999999999" type="line"/>
      <point x="864.5907692307692" y="1328.4676923076925" type="line" smooth="yes"/>
      <point x="586.843076923077" y="1327.8523076923077"/>
      <point x="266.24" y="1005.5015384615384"/>
      <point x="266.24" y="654.8615384615385" type="qcurve" smooth="yes"/>
      <point x="266.24" y="604.1230769230768" type="line" smooth="yes"/>
      <point x="266.24" y="343.26153846153846"/>
      <point x="448.0246153846154" y="127.42153846153846"/>
      <point x="586.9415384615385" y="127.42153846153846" type="qcurve" smooth="yes"/>
      <point x="725.8584615384616" y="127.42153846153846"/>
      <point x="878.0246153846153" y="303.1876923076923"/>
      <point x="878.0246153846153" y="463.8892307692308" type="qcurve" smooth="yes"/>
      <point x="878.0246153846153" y="624.1230769230768"/>
      <point x="725.8830769230769" y="798.1230769230768"/>
      <point x="586.9907692307693" y="798.1230769230768" type="qcurve" smooth="yes"/>
      <point x="458.0246153846154" y="798.1230769230768"/>
      <point x="260.15384615384613" y="624.5292307692307"/>
      <point x="260.1292307692308" y="464.0123076923077" type="qcurve"/>
      <point x="190.32615384615383" y="464.0123076923077" type="line"/>
      <point x="190.32615384615383" y="684.5292307692307"/>
      <point x="428.39384615384614" y="955.3353846153846"/>
      <point x="626.7076923076922" y="955.3353846153846" type="qcurve" smooth="yes"/>
      <point x="824.996923076923" y="955.3353846153846"/>
      <point x="1066.843076923077" y="685.0092307692307"/>
      <point x="1066.843076923077" y="463.8892307692308" type="qcurve" smooth="yes"/>
      <point x="1066.843076923077" y="242.52307692307693"/>
      <point x="795.243076923077" y="-29.75384615384615"/>
      <point x="586.9784615384615" y="-29.75384615384615" type="qcurve" smooth="yes"/>
      <point x="378.5784615384615" y="-29.75384615384615"/>
      <point x="79.39692307692307" y="272.83076923076925"/>
    </contour>
  </outline>
</glyph>
<glyph name="three.prop" format="2">
  <advance width="1042"/>
  <outline>
    <contour>
      <point x="17.06153846153846" y="377.82153846153847" type="qcurve" smooth="yes"/>
      <point x="17.06153846153846" y="390.8" type="line"/>
      <point x="201.95384615384614" y="390.8" type="line"/>
      <point x="201.95384615384614" y="377.9323076923077" type="line" smooth="yes"/>
      <point x="201.95384615384614" y="258.4492307692308"/>
      <point x="360.24307692307696" y="127.48307692307692"/>
      <point x="490.9876923076923" y="127.48307692307692" type="qcurve" smooth="yes"/>
      <point x="621.7815384615385" y="127.48307692307692"/>
      <point x="778.0707692307693" y="258.80615384615385"/>
      <point x="778.0707692307693" y="399.9384615384616" type="qcurve" smooth="yes"/>
      <point x="778.0707692307693" y="541.12"/>
      <point x="601.6707692307692" y="682.6276923076923"/>
      <point x="452.8892307692308" y="682.6276923076923" type="qcurve" smooth="yes"/>
      <point x="338.71384615384613" y="682.6276923076923" type="line"/>
      <point x="338.71384615384613" y="835.9138461538461" type="line"/>
      <point x="442.8276923076923" y="835.9138461538461" type="line" smooth="yes"/>
      <point x="579.9538461538461" y="835.8892307692308"/>
      <point x="728.6984615384616" y="969.7292307692308"/>
      <point x="728.6984615384616" y="1090.1969230769232" type="qcurve" smooth="yes"/>
      <point x="728.6984615384616" y="1211.156923076923"/>
      <point x="600.0400000000001" y="1328.5169230769231"/>
      <point x="491.0369230769231" y="1328.5169230769231" type="qcurve" smooth="yes"/>
      <point x="382.0338461538462" y="1328.5169230769231"/>
      <point x="241.63384615384615" y="1211.329230769231"/>
      <point x="241.63384615384615" y="1101.7846153846156" type="qcurve" smooth="yes"/>
      <point x="241.63384615384615" y="1088.9538461538461" type="line"/>
      <point x="56.76615384615385" y="1088.9538461538461" type="line"/>
      <point x="56.76615384615385" y="1102.0307692307692" type="line" smooth="yes"/>
      <point x="56.76615384615385" y="1261.316923076923"/>
      <point x="302.5015384615385" y="1485.7538461538463"/>
      <point x="491.0246153846154" y="1485.7538461538463" type="qcurve" smooth="yes"/>
      <point x="679.6461538461539" y="1485.7538461538463"/>
      <point x="919.516923076923" y="1270.8984615384616"/>
      <point x="919.516923076923" y="1100.1476923076923" type="qcurve" smooth="yes"/>
      <point x="919.516923076923" y="999.3476923076922"/>
      <point x="810.156923076923" y="815.8646153846154"/>
      <point x="694.9446153846153" y="766.2707692307692" type="qcurve"/>
      <point x="694.9446153846153" y="762.2707692307692" type="line"/>
      <point x="820.1323076923077" y="730.48"/>
      <point x="970.8646153846154" y="540.8615384615385"/>
      <point x="970.8646153846154" y="400.92615384615385" type="qcurve" smooth="yes"/>
      <point x="970.8646153846154" y="199.43384615384613"/>
      <point x="699.4615384615385" y="-29.75384615384615"/>
      <point x="490.9753846153846" y="-29.75384615384615" type="qcurve" smooth="yes"/>
      <point x="282.6984615384615" y="-29.75384615384615"/>
      <point x="17.06153846153846" y="198.59692307692308"/>
    </contour>
  </outline>
</glyph>
<glyph name="tildecomb.case" format="2">
  <advance width="1018"/>
  <outline>
    <contour>
      <point x="104.4953846153846" y="1759.6984615384615" type="line"/>
      <point x="141.22461538461536" y="1828.3046153846158"/>
      <point x="291.2276923076923" y="1940.6153846153845"/>
      <point x="367.6615384615385" y="1940.6153846153845" type="qcurve" smooth="yes"/>
      <point x="413.3415384615385" y="1940.6153846153845"/>
      <point x="494.81230769230774" y="1910.7630769230768"/>
      <point x="536.5169230769231" y="1882.9599999999998" type="qcurve" smooth="yes"/>
      <point x="566.3692307692307" y="1865.033846153846"/>
      <point x="662.6307692307693" y="1809.4276923076923"/>
      <point x="709.2738461538462" y="1809.4276923076923" type="qcurve" smooth="yes"/>
      <point x="754.9415384615385" y="1809.4276923076923"/>
      <point x="839.2646153846155" y="1865.9353846153847"/>
      <point x="865.1169230769231" y="1904.6892307692308" type="qcurve"/>
      <point x="932.8092307692308" y="1820.0584615384614" type="line"/>
      <point x="891.0430769230769" y="1738.6"/>
      <point x="752.9784615384616" y="1650.2030769230769"/>
      <point x="690.4215384615384" y="1650.2030769230769" type="qcurve" smooth="yes"/>
      <point x="637.7907692307692" y="1650.2030769230769"/>
      <point x="531.5661538461538" y="1698.8953846153847"/>
      <point x="499.75076923076927" y="1720.7353846153846" type="qcurve" smooth="yes"/>
      <point x="463.9969230769231" y="1745.5384615384617"/>
      <point x="381.5630769230769" y="1783.3538461538462"/>
      <point x="348.8092307692308" y="1783.3538461538462" type="qcurve" smooth="yes"/>
      <point x="296.1907692307692" y="1783.3538461538462"/>
      <point x="198.97846153846157" y="1704.9199999999998"/>
      <point x="179.10153846153844" y="1675.116923076923" type="qcurve"/>
    </contour>
  </outline>
</glyph>
